<svg xmlns="http://www.w3.org/2000/svg" viewBox="0 0 512 512" id="energy">
  <path fill="#D63384" d="M381.81,247.29c-2.89-8.77-9.66-15.18-18.58-17.57l-66.13-17.72,45.64-170.3c2.53-9.43-1.79-19.09-10.51-23.5-2.98-1.5-6.15-2.23-9.27-2.23-6.02,0-11.86,2.69-15.87,7.71L134.72,239.53c-5.76,7.22-7.41,16.4-4.53,25.18,2.89,8.77,9.66,15.18,18.58,17.57l66.12,17.72-45.63,170.31c-2.53,9.43,1.8,19.08,10.5,23.48,2.99,1.51,6.16,2.24,9.28,2.24,6.02,0,11.86-2.69,15.87-7.71l172.37-215.85c5.76-7.22,7.42-16.4,4.53-25.18Zm-171.69,186.43l34.56-128.96c3.84-14.33-4.69-29.1-19.01-32.94l-64.54-17.29L301.88,78.28l-34.56,128.96c-3.84,14.32,4.69,29.1,19.01,32.94l64.54,17.29-140.75,176.25Z"></path>
  <path fill="#D63384" d="M244.68,304.76c3.84-14.33-4.69-29.1-19.01-32.94l-64.54-17.29L301.88,78.28l-34.56,128.96c-3.84,14.32,4.69,29.1,19.01,32.94l64.54,17.29-140.75,176.25,34.56-128.96Z"></path>
</svg>
