<svg xmlns="http://www.w3.org/2000/svg" viewBox="0 0 256 256" id="sword">
  <rect width="256" height="256" fill="none"></rect>
  <path d="M82.14214,197.45584,52.201,227.397a8,8,0,0,1-11.31371,0L28.603,215.11268a8,8,0,0,1,0-11.31371l29.94113-29.94112a8,8,0,0,0,0-11.31371L37.65685,141.65685a8,8,0,0,1,0-11.3137l12.6863-12.6863a8,8,0,0,1,11.3137,0l76.6863,76.6863a8,8,0,0,1,0,11.3137l-12.6863,12.6863a8,8,0,0,1-11.3137,0L93.45584,197.45584A8,8,0,0,0,82.14214,197.45584Z" opacity=".2"></path>
  <polyline fill="#D63384" stroke="#D63384" stroke-linecap="round" stroke-linejoin="round" stroke-width="16" points="76.201 132.201 152.201 40.201 216 40 215.799 103.799 123.799 179.799"></polyline>
  <line x1="100" x2="160" y1="156" y2="96" fill="#D63384" stroke="#D63384" stroke-linecap="round" stroke-linejoin="round" stroke-width="16"></line>
  <path fill="#D63384" stroke="#D63384" stroke-linecap="round" stroke-linejoin="round" stroke-width="16" d="M82.14214,197.45584,52.201,227.397a8,8,0,0,1-11.31371,0L28.603,215.11268a8,8,0,0,1,0-11.31371l29.94113-29.94112a8,8,0,0,0,0-11.31371L37.65685,141.65685a8,8,0,0,1,0-11.3137l12.6863-12.6863a8,8,0,0,1,11.3137,0l76.6863,76.6863a8,8,0,0,1,0,11.3137l-12.6863,12.6863a8,8,0,0,1-11.3137,0L93.45584,197.45584A8,8,0,0,0,82.14214,197.45584Z"></path>
</svg>
